<?xml version="1.0" standalone="no"?>
<!DOCTYPE svg PUBLIC "-//W3C//DTD SVG 20010904//EN"
 "http://www.w3.org/TR/2001/REC-SVG-20010904/DTD/svg10.dtd">
<svg version="1.0" xmlns="http://www.w3.org/2000/svg"
 width="2194.000000pt" height="2194.000000pt" viewBox="0 0 2194.000000 2194.000000"
 preserveAspectRatio="xMidYMid meet">
<metadata>
Created by potrace 1.14, written by Peter Selinger 2001-2017
</metadata>
<g transform="translate(0.000000,2194.000000) scale(0.100000,-0.100000)"
fill="#000000" stroke="none">
<path d="M5901 14259 c-87 -43 -162 -122 -211 -222 -51 -103 -69 -178 -70
-287 -1 -358 283 -542 532 -345 188 150 264 475 162 691 -82 174 -254 242
-413 163z"/>
<path d="M9977 13323 c-1 0 -67 -4 -147 -9 -80 -4 -161 -8 -180 -9 -19 -2 -55
-3 -79 -4 l-43 -1 6 -72 c4 -40 9 -91 11 -113 7 -61 14 -150 20 -255 4 -52 8
-115 10 -140 24 -316 24 -1402 -1 -2157 l-6 -173 245 0 244 0 18 40 c10 22 24
40 31 40 8 0 34 -15 59 -34 96 -74 231 -105 435 -101 80 1 159 5 175 9 291 63
496 231 642 528 164 330 176 753 31 1058 -89 187 -222 331 -378 410 -53 27
-144 59 -185 65 -116 17 -148 20 -210 19 -214 -3 -390 -56 -516 -155 -20 -16
-42 -29 -49 -29 -10 0 -11 96 -6 453 4 248 9 494 11 545 l4 93 -70 -3 c-39 -2
-71 -4 -72 -5z m673 -1305 c167 -57 291 -222 335 -448 21 -107 13 -309 -15
-420 -39 -148 -128 -299 -208 -353 -101 -67 -176 -88 -308 -89 -126 0 -281 45
-322 95 -6 7 -14 63 -18 123 -3 60 -7 129 -9 154 -2 25 -6 214 -10 421 l-7
376 47 41 c94 83 210 120 370 119 61 0 108 -6 145 -19z"/>
<path d="M16897 13314 c-2 -2 -393 -13 -481 -13 l-48 -1 6 -67 c24 -256 35
-467 40 -754 3 -120 0 -166 -8 -165 -6 1 -45 18 -86 38 -81 38 -138 55 -228
65 -71 8 -209 8 -283 -1 -71 -8 -217 -49 -272 -78 -342 -173 -564 -606 -551
-1075 4 -122 17 -201 55 -317 79 -240 240 -438 435 -535 116 -58 202 -75 369
-76 160 0 234 11 343 52 85 31 136 58 193 101 58 43 79 48 80 19 1 -47 12
-113 20 -123 5 -6 20 -10 34 -9 13 2 117 6 232 10 114 4 210 8 214 11 3 2 5
16 3 31 -3 27 -12 181 -20 328 -27 548 -26 1938 2 2450 l6 110 -27 0 c-15 0
-27 -1 -28 -1z m-614 -1295 c32 -11 76 -31 98 -44 37 -24 39 -28 40 -78 1 -28
2 -72 4 -97 8 -121 17 -423 20 -666 l3 -272 -31 -29 c-85 -79 -189 -111 -376
-117 -202 -7 -353 101 -442 316 -47 115 -58 185 -54 358 2 133 6 168 30 245
47 160 131 286 231 348 122 76 316 90 477 36z"/>
<path d="M886 13093 c-2 -2 -493 -11 -724 -13 l-43 0 6 -107 c26 -558 26
-1838 -1 -2471 l-4 -112 287 2 288 3 -2 25 c-2 39 -16 687 -17 860 -1 85 1
162 5 171 7 13 30 15 156 13 81 -1 168 -5 192 -8 88 -14 182 -55 236 -103 26
-23 85 -99 85 -109 0 -4 6 -15 13 -23 37 -45 171 -376 266 -661 29 -85 56
-158 60 -163 4 -4 143 -6 308 -5 l301 3 -78 200 c-281 726 -424 967 -636 1071
-41 21 -74 42 -74 49 0 6 28 24 63 39 242 107 395 270 453 486 23 89 28 275 9
360 -66 287 -301 445 -725 486 -65 7 -419 12 -424 7z m244 -397 c103 -15 150
-30 215 -67 66 -37 109 -82 139 -149 31 -69 38 -106 37 -201 -1 -168 -79 -293
-226 -364 -135 -66 -304 -87 -596 -76 l-25 1 -2 193 c0 105 -4 273 -8 372 -11
302 -14 268 26 277 19 4 71 10 115 14 44 3 81 7 82 8 5 4 209 -3 243 -8z"/>
<path d="M5135 13088 c-347 -38 -779 -180 -1125 -370 -81 -44 -80 -48 7 -27
180 44 413 85 542 95 42 3 87 8 101 10 35 6 364 6 392 0 13 -3 53 -7 89 -10
302 -25 648 -144 925 -317 87 -54 260 -178 297 -212 6 -7 39 -34 72 -62 33
-27 152 -140 265 -251 303 -299 410 -396 410 -376 0 5 -18 63 -41 128 -281
817 -762 1283 -1428 1384 -125 19 -371 23 -506 8z"/>
<path d="M12913 13073 c-3 -7 -2 -61 1 -120 25 -461 25 -1758 0 -2420 l-5
-143 880 0 881 0 1 73 c1 84 7 262 12 329 2 33 -2 49 -11 53 -8 3 -17 3 -21 1
-3 -3 -78 -8 -166 -11 -88 -4 -194 -9 -235 -11 -217 -10 -770 -16 -771 -8 -5
40 -8 135 -14 435 l-7 345 223 -2 c192 -2 322 -6 641 -17 32 -1 59 3 61 8 2 6
3 102 2 215 l0 205 -50 -1 c-28 -1 -158 -5 -290 -9 -132 -4 -318 -8 -412 -9
l-173 -2 0 116 c-1 135 -8 361 -15 477 -3 59 -1 82 8 85 6 2 46 3 87 2 294 -6
633 -15 730 -20 247 -11 293 -10 295 6 1 8 5 87 9 175 4 88 9 178 11 201 1 22
0 45 -3 50 -4 5 -354 9 -836 9 -647 0 -830 -3 -833 -12z"/>
<path d="M19134 12679 c-145 -27 -248 -137 -291 -316 l-18 -72 -77 35 c-43 19
-122 47 -175 61 -89 24 -116 26 -298 27 -205 1 -271 -4 -362 -28 -29 -8 -53
-12 -53 -9 0 3 -6 1 -12 -4 -7 -6 -26 -13 -42 -17 -112 -27 -276 -144 -359
-256 -39 -54 -83 -148 -102 -220 -17 -65 -24 -222 -13 -287 28 -153 128 -294
268 -374 33 -19 60 -41 60 -49 0 -8 -15 -25 -33 -37 -160 -109 -231 -272 -197
-451 17 -93 58 -158 143 -229 15 -13 27 -27 27 -32 0 -5 -22 -17 -49 -26 -179
-59 -309 -241 -315 -443 -12 -361 229 -568 719 -620 86 -9 379 -9 460 0 167
19 342 70 489 144 310 156 473 386 481 678 4 197 -52 332 -182 435 -48 38
-151 91 -208 106 -16 5 -32 9 -35 10 -15 4 -120 25 -150 30 -46 7 -189 13
-440 20 -226 6 -269 10 -370 31 -55 11 -126 51 -149 82 -19 28 -39 93 -35 120
1 6 2 16 3 21 2 18 53 72 81 86 19 10 37 12 58 6 141 -41 500 -30 666 19 206
62 374 204 459 391 79 172 67 424 -26 565 -50 75 -51 80 -14 108 54 40 160 65
309 70 65 2 69 5 73 43 10 97 37 320 40 330 5 16 -57 39 -140 51 -79 12 -131
12 -191 1z m-762 -585 c69 -23 159 -85 192 -133 85 -123 88 -326 6 -439 -109
-150 -357 -195 -538 -97 -69 37 -121 90 -151 155 -23 49 -26 67 -26 165 0 101
2 115 29 167 50 101 164 182 274 195 26 3 48 7 50 8 8 7 123 -7 164 -21z
m-127 -1769 c191 -5 312 -11 345 -18 8 -2 33 -7 55 -12 152 -31 228 -118 228
-265 1 -60 -4 -86 -25 -131 -77 -169 -294 -269 -588 -271 -147 -1 -213 7 -295
35 -181 61 -265 188 -253 381 8 123 50 204 143 275 27 21 37 22 110 17 44 -4
170 -9 280 -11z"/>
<path d="M5484 12547 c-2 -94 -30 -387 -37 -393 -1 -1 -96 -5 -212 -8 -115 -4
-223 -9 -240 -11 -16 -2 -61 -6 -100 -10 -89 -8 -166 -17 -185 -21 -8 -1 -26
-3 -40 -4 -41 -1 -3 -17 64 -25 32 -4 68 -8 80 -10 11 -2 64 -11 116 -20 142
-24 278 -53 441 -96 l36 -9 -18 -78 c-11 -42 -21 -86 -24 -96 -11 -47 -61
-189 -97 -276 -82 -199 -204 -404 -344 -580 -140 -175 -434 -449 -721 -674
-64 -50 -73 -59 -50 -51 6 2 77 23 157 46 315 91 587 214 807 365 122 84 122
84 238 199 257 255 377 538 379 892 1 79 1 143 2 143 12 0 146 -60 211 -95
334 -181 517 -402 559 -679 8 -57 8 -202 -1 -256 -12 -79 -46 -213 -67 -265
-11 -27 -29 -72 -40 -100 -75 -186 -224 -436 -497 -833 -58 -85 -141 -226
-141 -240 0 -7 16 10 101 108 521 605 843 1118 958 1525 18 67 22 83 37 165
12 65 11 224 -2 290 -60 314 -314 527 -746 626 -50 11 -69 15 -143 29 -44 8
-107 17 -140 20 -94 9 -149 16 -151 18 0 1 -17 51 -38 111 -36 105 -128 310
-143 319 -5 3 -8 -9 -9 -26z"/>
<path d="M3378 12435 c-2 -1 -30 -6 -63 -10 -89 -10 -229 -59 -324 -112 -84
-48 -207 -156 -268 -238 -110 -145 -198 -351 -219 -510 -3 -27 -8 -54 -11 -58
-11 -18 -3 -278 11 -352 57 -319 259 -588 536 -717 158 -74 325 -105 570 -105
158 0 211 3 360 22 113 15 313 66 324 83 2 4 7 41 11 82 4 41 8 91 10 110 2
19 6 62 10 95 3 33 8 70 10 83 6 26 5 26 -82 6 -83 -19 -96 -22 -147 -30 -22
-3 -43 -7 -46 -9 -3 -2 -34 -6 -70 -10 -36 -4 -74 -9 -85 -11 -44 -10 -304
-11 -358 -3 -144 23 -239 71 -342 174 -86 86 -121 143 -154 249 -37 120 -48
112 152 114 183 3 547 9 921 17 125 2 230 6 233 9 3 3 7 89 9 193 4 194 -6
288 -42 397 -78 235 -227 399 -434 475 -64 23 -119 38 -175 46 -43 7 -331 15
-337 10z m273 -385 c146 -58 219 -182 233 -399 l3 -51 -101 -1 c-55 0 -164 -2
-241 -4 -280 -6 -515 -8 -520 -4 -10 11 38 178 70 244 84 171 214 247 411 239
62 -2 109 -10 145 -24z"/>
<path d="M20495 12429 c-106 -15 -188 -41 -290 -90 -141 -69 -218 -135 -351
-302 -28 -35 -113 -203 -138 -272 -26 -73 -53 -187 -61 -259 -6 -57 -7 -279
-1 -297 3 -7 7 -30 10 -49 37 -239 182 -480 381 -630 120 -90 262 -147 465
-185 58 -11 419 -14 510 -4 176 20 390 66 424 92 9 8 17 39 21 87 4 41 8 86
10 100 2 14 6 59 10 100 4 41 9 84 12 94 5 16 1 18 -23 13 -206 -44 -267 -56
-314 -62 -30 -3 -73 -8 -95 -12 -100 -14 -311 -10 -395 7 -216 44 -384 193
-455 404 -14 41 -25 85 -25 98 l0 24 178 3 c208 2 628 10 931 16 117 2 216 7
219 9 3 3 6 95 7 203 2 159 -1 215 -15 286 -25 119 -62 213 -120 302 -111 170
-254 263 -474 312 -82 17 -332 25 -421 12z m270 -364 c89 -18 182 -90 225
-174 34 -68 71 -273 51 -285 -3 -2 -171 -7 -371 -11 -201 -4 -391 -8 -422 -9
-32 -1 -59 3 -61 9 -7 19 39 180 71 245 76 159 217 242 397 235 44 -2 94 -6
110 -10z"/>
<path d="M8247 12424 c-1 -1 -63 -5 -137 -8 -74 -3 -144 -8 -155 -10 -11 -2
-51 -7 -90 -11 -38 -4 -72 -8 -75 -10 -3 -2 -23 -6 -45 -9 -76 -12 -195 -48
-196 -60 0 -6 -3 -31 -6 -56 -37 -299 -38 -310 -26 -310 6 0 38 7 70 15 157
41 308 58 513 59 402 1 505 -65 515 -332 2 -65 0 -94 -8 -97 -7 -2 -66 -6
-132 -10 -235 -12 -412 -41 -560 -92 -143 -49 -217 -94 -310 -187 -128 -128
-187 -266 -186 -435 1 -100 5 -125 33 -198 50 -133 173 -244 333 -300 75 -26
90 -27 250 -27 145 0 183 3 260 23 105 27 217 76 286 126 60 43 79 45 79 7 0
-16 7 -51 15 -78 l15 -50 62 3 c178 9 251 11 334 12 l91 1 -17 93 c-45 236
-50 388 -39 1107 4 252 -3 324 -40 434 -58 173 -166 279 -346 341 -27 9 -59
19 -70 21 -11 2 -36 7 -55 11 -19 4 -37 8 -40 8 -41 10 -316 26 -323 19z m359
-1127 c4 -3 8 -91 10 -194 2 -103 6 -207 8 -230 4 -33 0 -45 -17 -61 -27 -25
-87 -54 -153 -76 -78 -26 -92 -28 -207 -31 -172 -5 -264 31 -313 124 -31 59
-29 184 3 246 68 128 236 202 503 221 47 4 86 7 87 8 6 5 73 -1 79 -7z"/>
<path d="M2584 8426 c-89 -22 -164 -77 -216 -157 -9 -14 -26 -59 -39 -99 -18
-60 -21 -88 -16 -164 8 -142 54 -239 149 -309 70 -51 141 -70 242 -65 210 11
335 154 341 388 7 243 -124 400 -345 415 -36 2 -88 -1 -116 -9z m196 -98 c108
-46 162 -149 161 -308 -1 -163 -80 -274 -214 -299 -128 -23 -249 48 -291 172
-31 93 -23 245 17 324 30 57 94 107 162 124 42 11 124 4 165 -13z"/>
<path d="M7035 8426 c-174 -42 -273 -177 -279 -380 -9 -264 154 -426 418 -414
77 3 102 9 161 36 38 18 84 44 102 58 l33 25 0 145 0 144 -166 0 -165 0 3 -47
3 -48 112 1 112 1 -2 -76 -2 -76 -70 -35 c-62 -31 -78 -35 -150 -35 -178 1
-272 94 -283 282 -11 198 79 322 246 339 109 12 196 -31 235 -114 12 -26 22
-48 23 -50 1 -2 20 2 43 9 48 14 51 30 20 90 -31 62 -65 95 -130 123 -69 32
-185 41 -264 22z"/>
<path d="M8160 8425 c-136 -38 -215 -115 -254 -249 -21 -73 -20 -196 3 -280
33 -120 88 -193 180 -238 37 -19 65 -23 147 -25 86 -2 107 1 150 21 72 33 119
78 154 148 16 34 30 67 30 73 0 7 -21 19 -47 27 l-48 15 -17 -44 c-39 -104
-112 -155 -219 -155 -95 0 -172 49 -209 133 -39 91 -45 221 -15 324 21 70 88
144 148 162 62 19 157 11 200 -16 39 -24 87 -88 87 -116 0 -8 8 -15 18 -15 22
0 92 19 92 26 0 2 -9 24 -21 49 -28 59 -84 116 -143 143 -58 28 -170 36 -236
17z"/>
<path d="M10913 8424 c-164 -42 -257 -177 -262 -379 -4 -178 70 -324 196 -387
42 -20 63 -23 158 -23 121 0 156 12 229 76 32 28 96 137 96 164 0 6 -22 18
-48 27 l-48 15 -17 -48 c-41 -116 -144 -172 -266 -146 -102 21 -170 103 -189
227 -21 138 8 261 78 330 53 53 97 69 185 66 80 -2 135 -37 172 -108 27 -52
30 -53 85 -38 36 10 37 11 26 43 -19 57 -67 117 -118 148 -69 43 -185 57 -277
33z"/>
<path d="M13427 8425 c-131 -36 -199 -146 -163 -263 12 -42 68 -99 114 -119
31 -13 189 -58 241 -69 101 -21 149 -110 99 -184 -34 -49 -102 -74 -190 -67
-110 9 -176 55 -198 138 -11 41 -20 45 -77 33 -30 -6 -30 -7 -22 -50 11 -57
30 -92 71 -133 52 -52 110 -73 214 -79 126 -6 190 13 253 76 53 54 73 107 66
177 -11 110 -83 166 -270 210 -175 42 -225 77 -210 148 13 61 64 96 147 101
106 6 188 -34 204 -100 11 -45 19 -51 66 -45 41 6 43 8 40 36 -9 75 -63 143
-141 177 -57 25 -177 31 -244 13z"/>
<path d="M15175 8424 c-109 -26 -208 -121 -244 -237 -15 -48 -19 -86 -17 -172
1 -99 5 -116 32 -175 38 -79 101 -145 174 -179 49 -23 67 -26 160 -25 94 0
111 3 162 28 135 66 209 206 202 387 -9 273 -210 433 -469 373z m188 -91 c61
-20 113 -68 144 -131 26 -52 28 -66 28 -172 0 -129 -16 -176 -78 -240 -129
-133 -362 -77 -423 101 -23 70 -23 205 1 281 42 136 190 208 328 161z"/>
<path d="M17030 8426 c-100 -26 -166 -96 -174 -185 -9 -107 50 -177 180 -216
46 -14 122 -36 168 -50 97 -29 136 -63 136 -119 0 -85 -90 -142 -210 -133
-108 7 -176 54 -202 139 l-12 40 -44 -6 c-25 -3 -46 -7 -48 -9 -2 -2 2 -27 10
-55 34 -133 136 -201 302 -202 114 0 176 21 233 78 53 54 71 100 65 174 -7
114 -106 185 -310 224 -127 24 -183 70 -170 138 22 116 269 139 336 31 11 -18
20 -42 20 -54 0 -19 6 -21 50 -21 49 0 50 1 50 30 0 38 -33 105 -68 137 -63
59 -210 87 -312 59z"/>
<path d="M18627 8433 c-1 -1 -14 -4 -27 -6 -77 -15 -157 -71 -205 -142 -102
-155 -82 -429 43 -561 65 -70 118 -89 247 -89 121 0 156 12 229 76 33 29 96
137 96 165 0 12 -57 34 -86 34 -7 0 -19 -19 -29 -42 -40 -101 -110 -150 -215
-150 -123 0 -216 87 -237 224 -12 73 -7 170 11 233 32 109 132 180 244 174 87
-5 150 -45 178 -114 19 -46 19 -46 59 -39 65 10 67 14 41 69 -42 88 -100 136
-192 160 -48 12 -148 18 -157 8z"/>
<path d="M19360 8421 c-159 -50 -245 -175 -249 -364 -4 -200 76 -354 214 -406
39 -15 72 -19 150 -18 109 3 150 17 219 78 33 29 96 137 96 165 0 15 -75 38
-96 30 -8 -3 -14 -14 -14 -24 0 -34 -57 -110 -104 -137 -77 -45 -184 -36 -264
22 -77 57 -116 222 -88 372 16 82 68 156 132 186 49 23 133 30 181 15 46 -15
103 -56 103 -74 0 -8 7 -19 15 -26 8 -7 15 -21 15 -33 0 -17 4 -19 42 -13 68
11 70 15 44 72 -29 62 -82 115 -144 145 -62 29 -176 33 -252 10z"/>
<path d="M20817 8429 c-42 -10 -87 -31 -119 -57 -33 -28 -66 -107 -63 -156 5
-110 80 -172 260 -216 104 -25 173 -51 194 -74 32 -34 37 -93 12 -133 -33 -52
-73 -67 -176 -68 -80 0 -94 3 -130 26 -54 36 -71 56 -86 107 -12 42 -13 43
-53 38 -23 -2 -44 -5 -48 -5 -10 -1 3 -72 20 -106 57 -113 154 -160 319 -154
68 3 98 9 133 27 96 50 142 126 135 222 -9 116 -94 179 -309 225 -49 11 -123
36 -137 48 -46 35 -48 106 -5 146 46 43 115 55 214 37 50 -9 100 -54 109 -97
3 -16 11 -32 17 -36 15 -10 80 -3 87 9 16 25 -29 120 -75 160 -59 53 -198 79
-299 57z"/>
<path d="M21530 8426 c-80 -20 -134 -62 -158 -121 -33 -82 -18 -159 42 -217
39 -39 42 -40 307 -119 77 -22 109 -52 116 -106 11 -86 -82 -149 -207 -141
-108 8 -178 56 -200 136 -11 42 -11 42 -53 40 -23 -2 -45 -7 -48 -11 -8 -12 8
-81 27 -120 22 -42 71 -85 124 -110 69 -31 216 -35 295 -8 190 66 220 302 50
392 -28 15 -99 39 -160 54 -138 34 -190 58 -205 94 -34 84 44 159 165 156 102
-3 155 -33 179 -101 13 -38 14 -39 62 -39 48 0 49 1 46 28 -10 82 -73 155
-156 184 -62 20 -165 24 -226 9z"/>
<path d="M4 8035 l1 -390 288 -3 287 -2 0 45 c0 36 -4 45 -17 46 -10 0 -116 1
-235 1 -148 1 -218 5 -221 12 -2 6 -3 65 -3 131 l1 120 213 3 c212 2 212 2
213 25 0 12 2 32 3 45 2 12 -2 22 -8 23 -6 0 -103 1 -216 2 l-204 2 -1 118 -1
117 227 0 227 0 4 29 c2 16 1 37 -2 47 -7 18 -22 19 -282 19 l-276 0 2 -390z"/>
<path d="M719 8410 c-1 -19 -1 -752 0 -762 1 -5 23 -8 49 -8 l48 0 -1 324 c0
179 3 322 6 318 4 -4 54 -149 112 -322 l106 -315 47 0 48 0 19 55 c11 30 45
132 77 225 64 187 121 348 125 353 1 2 3 -136 3 -305 0 -169 1 -314 1 -321 1
-9 15 -12 48 -10 l48 3 0 383 c0 211 -2 386 -5 390 -3 4 -33 7 -67 8 l-63 0
-15 -41 c-19 -54 -169 -495 -193 -570 l-19 -60 -107 325 c-60 179 -112 329
-117 335 -5 5 -41 10 -79 10 -56 0 -70 -2 -71 -15z"/>
<path d="M1620 8033 l0 -393 50 0 c41 0 50 3 51 18 0 9 1 80 1 158 l0 141 133
2 c141 2 150 3 213 21 46 14 100 67 123 120 46 105 2 247 -89 294 -48 24 -94
29 -289 30 l-193 2 0 -393z m408 286 c63 -22 94 -127 59 -196 -29 -55 -80 -71
-231 -72 l-133 -2 0 141 -1 140 138 0 c75 0 151 -5 168 -11z"/>
<path d="M3115 8420 c-2 -3 3 -30 11 -60 20 -76 115 -442 120 -460 2 -8 18
-70 35 -137 l31 -123 54 0 53 0 15 53 c8 28 24 86 35 127 11 41 28 107 39 145
11 39 36 134 57 213 21 78 40 140 42 139 3 -3 157 -561 168 -607 17 -74 14
-71 68 -68 l51 3 12 45 c7 25 30 113 52 195 22 83 52 191 65 240 42 150 77
284 77 292 0 5 -22 8 -49 9 l-49 1 -21 -86 c-11 -47 -36 -153 -56 -236 -19
-82 -39 -163 -44 -180 -5 -16 -14 -58 -21 -92 -7 -35 -16 -60 -21 -58 -4 3 -7
13 -7 23 1 32 -26 144 -92 377 -26 94 -51 184 -55 202 -9 42 -20 49 -84 49
l-54 -1 -43 -155 c-24 -85 -46 -164 -48 -175 -3 -11 -21 -78 -41 -150 -19 -71
-39 -143 -43 -159 -6 -24 -15 4 -46 145 -21 96 -40 183 -42 194 -3 11 -7 31
-10 44 -3 12 -12 53 -20 90 -9 36 -18 75 -20 86 -15 77 -17 79 -68 80 -26 1
-49 -1 -51 -5z"/>
<path d="M4200 8033 l0 -393 290 0 290 0 0 45 c0 36 -4 45 -17 46 -10 0 -116
1 -235 1 -151 1 -218 4 -219 12 -1 6 -2 66 -3 134 l-1 122 212 0 213 0 0 45
c0 36 -4 45 -17 46 -10 0 -106 1 -213 2 l-195 2 0 118 -1 117 228 0 228 0 0
48 0 47 -280 0 -280 0 0 -392z"/>
<path d="M4925 8420 c-2 -4 -4 -181 -4 -393 l0 -387 52 0 52 0 -1 176 -1 176
97 -4 c128 -5 141 -15 261 -203 l93 -145 64 0 c48 0 61 3 56 13 -136 222 -186
290 -233 319 l-34 21 39 12 c92 28 145 75 165 148 15 55 4 130 -26 177 -29 46
-57 67 -110 82 -42 12 -463 19 -470 8z m452 -106 c41 -30 54 -62 50 -117 -8
-95 -51 -115 -251 -116 l-152 -2 2 123 c1 68 2 126 3 130 0 4 73 6 160 5 144
-2 162 -4 188 -23z"/>
<path d="M5717 8416 c-1 -6 -2 -182 -2 -391 l0 -380 53 -3 52 -3 -2 393 -3
392 -47 1 c-26 1 -49 -4 -51 -9z"/>
<path d="M6003 8423 c-6 -2 -9 -679 -4 -771 1 -9 15 -12 49 -10 l47 3 0 302
c0 167 1 303 2 303 1 0 93 -137 204 -305 l201 -305 55 0 54 0 -3 392 -3 393
-45 0 -45 0 -5 -305 -5 -304 -201 305 -202 305 -45 0 c-25 0 -49 -2 -54 -3z"/>
<path d="M8699 8416 c-1 -6 -2 -183 -3 -393 l-1 -383 243 0 242 0 0 45 c0 52
25 47 -217 47 -115 0 -163 4 -164 12 0 6 -1 162 -2 346 l-2 334 -47 1 c-27 1
-49 -4 -49 -9z"/>
<path d="M9317 8416 c-1 -6 -3 -182 -2 -391 l0 -380 53 -3 52 -3 -2 393 -3
392 -47 1 c-26 1 -49 -4 -51 -9z"/>
<path d="M9599 8420 c-1 -6 -1 -751 0 -767 1 -9 18 -13 49 -13 l47 0 0 305 c0
168 1 305 2 305 2 0 93 -137 204 -305 l201 -305 54 0 53 0 -2 392 -2 393 -45
0 -45 0 -5 -310 c-3 -171 -8 -303 -11 -294 -4 8 -93 145 -198 303 -105 159
-191 291 -191 295 0 8 -110 9 -111 1z"/>
<path d="M10396 8421 c-1 -4 -2 -179 -2 -391 l1 -385 52 -3 52 -3 -2 393 -2
392 -48 1 c-27 1 -49 -1 -51 -4z"/>
<path d="M11476 8421 c-1 -4 -2 -179 -2 -391 l1 -385 53 -3 52 -3 -2 393 -3
392 -48 1 c-27 1 -49 -1 -51 -4z"/>
<path d="M11964 8406 c-8 -11 -14 -24 -14 -28 0 -4 -61 -168 -135 -364 -74
-195 -135 -360 -135 -365 0 -6 23 -9 53 -7 l52 3 40 115 40 115 164 0 163 0
43 -115 43 -115 57 -3 c51 -3 57 -1 53 15 -6 20 -299 756 -305 762 -2 3 -26 5
-54 6 -40 1 -53 -2 -65 -19z m164 -362 l31 -82 -130 1 c-71 0 -129 3 -129 6 0
3 16 49 36 101 42 113 69 193 79 238 6 31 9 27 45 -75 20 -59 51 -145 68 -189z"/>
<path d="M12482 8416 c-6 -8 -8 -697 -3 -763 1 -9 18 -13 49 -13 l47 0 0 305
c0 266 4 342 17 293 2 -7 90 -145 197 -305 l193 -293 53 0 53 0 -2 392 -1 392
-47 1 -48 1 0 -305 c-1 -278 -2 -304 -16 -286 -9 11 -101 148 -204 305 l-188
285 -46 0 c-26 1 -50 -4 -54 -9z"/>
<path d="M14284 8032 l0 -393 50 3 51 3 1 160 c1 88 2 167 3 175 1 14 26 16
179 15 l177 0 3 48 3 47 -180 0 c-138 0 -181 3 -182 13 0 6 -2 59 -2 117 l-2
105 210 5 210 5 2 30 c3 63 17 60 -265 60 l-258 0 0 -393z"/>
<path d="M15780 8033 l0 -393 50 0 c48 0 50 1 51 28 0 15 2 92 2 172 l2 145
76 1 c42 1 89 -1 104 -4 43 -8 94 -67 185 -210 l83 -132 63 0 64 0 -41 68
c-115 184 -151 231 -213 276 -19 13 -18 14 15 21 117 25 184 114 174 229 -8
91 -72 165 -155 182 -19 4 -131 7 -247 8 l-213 2 0 -393z m453 282 c57 -37 73
-113 37 -172 -31 -52 -50 -57 -226 -61 l-161 -4 0 131 1 131 160 -3 c136 -3
165 -6 189 -22z"/>
<path d="M17581 8150 c1 -298 8 -354 55 -421 14 -20 48 -49 77 -65 44 -24 66
-29 143 -32 187 -9 297 64 322 211 4 23 7 163 7 312 l0 269 -47 1 c-27 1 -48
-1 -49 -4 -1 -4 -2 -125 -4 -271 -2 -274 -8 -326 -45 -373 -54 -68 -231 -74
-301 -11 -48 43 -52 72 -55 364 -1 151 -3 280 -3 285 -1 6 -23 11 -51 10 l-51
0 2 -275z"/>
</g>
</svg>
